# xmcd
#
# Track frame offsets:
#	150
#	15517
#	28710
#	42390
#	56925
#	67440
#	82212
#	97340
#	109492
#	120457
#	133815
#	150210
#	161815
#	173392
#
# Disc length: 2540
#
# Revision: 2
# Processed by: cddbd v1.5.1PL0 Copyright (c) Steve Scherf et al.
# Submitted via: dBpowerAMP V4.0
# Normalized: r0:TSWAP
#
DISCID=c709ea0e
DTITLE=Various Artist - The Class Of Country
DYEAR=1900
DGENRE=Country
TTITLE0=B.J. Thomas - (Hey, Won't You Play) Another Somebody Done Somebody Wrong Song
TTITLE1=Dolly Parton - Here You Come Again
TTITLE2=Waylon Jennings and Willie Nelson - Good Hearted Woman
TTITLE3=Don Williams - Tulsa Time
TTITLE4=Barbara Mandrell - Sleeping Single In A Double Bed
TTITLE5=Glen Campbell - Rhinestone Cowboy
TTITLE6=Jessi Colter - I'm Not Lisa
TTITLE7=Loretta Lynn - Out Of My Head And Back In My Bed
TTITLE8=Mel Tillis - I Believe In You
TTITLE9=Conway Twitty - After All The Good Is Gone
TTITLE10=Oak Ridge Boys - I'll Be True To You
TTITLE11=Freedy Fender - Before The Next Teardrop Falls
TTITLE12=John Conlee - Backside Of Thirty
TTITLE13=C.W. McCall - Convoy
EXTD=
EXTT0=
EXTT1=
EXTT2=
EXTT3=
EXTT4=
EXTT5=
EXTT6=
EXTT7=
EXTT8=
EXTT9=
EXTT10=
EXTT11=
EXTT12=
EXTT13=
PLAYORDER=
